HIERARCHY
ROOT Hips
{
	OFFSET 0.000000 97.167313 0.000000
	CHANNELS 6 Xposition Yposition Zposition Xrotation Yrotation Zrotation
	JOINT Spine
	{
		OFFSET 0.000000 13.784798 0.064400
		CHANNELS 3 Xrotation Yrotation Zrotation
		JOINT Spine1
		{
			OFFSET 0.000000 12.037903 0.404700
			CHANNELS 3 Xrotation Yrotation Zrotation
			JOINT Spine2
			{
				OFFSET 0.000000 17.795601 0.420200
				CHANNELS 3 Xrotation Yrotation Zrotation
				JOINT Neck
				{
					OFFSET 0.000000 39.131302 11.954600
					CHANNELS 3 Xrotation Yrotation Zrotation
					JOINT Head
					{
						OFFSET 0.000000 14.456192 15.627699
						CHANNELS 3 Xrotation Yrotation Zrotation
						JOINT HeadTop_End
						{
							OFFSET 0.000000 15.703506 7.603401
							CHANNELS 3 Xrotation Yrotation Zrotation
							End Site
							{
								OFFSET 0.000000 17.447403 0.000000
							}
						}
					}
				}
				JOINT LeftShoulder
				{
					OFFSET 17.399500 24.608795 1.168800
					CHANNELS 3 Xrotation Yrotation Zrotation
					JOINT LeftArm
					{
						OFFSET 18.980635 5.765305 1.818600
						CHANNELS 3 Xrotation Yrotation Zrotation
						JOINT LeftForeArm
						{
							OFFSET 49.290169 0.000000 0.000000
							CHANNELS 3 Xrotation Yrotation Zrotation
							JOINT LeftHand
							{
								OFFSET 31.562012 0.000000 0.000000
								CHANNELS 3 Xrotation Yrotation Zrotation
								JOINT LeftHandThumb1
								{
									OFFSET 6.133995 -4.388519 7.076070
									CHANNELS 3 Xrotation Yrotation Zrotation
									JOINT LeftHandThumb2
									{
										OFFSET 6.037666 -3.485840 3.485847
										CHANNELS 3 Xrotation Yrotation Zrotation
										JOINT LeftHandThumb3
										{
											OFFSET 6.496506 -3.750763 3.750761
											CHANNELS 3 Xrotation Yrotation Zrotation
											JOINT LeftHandThumb4
											{
												OFFSET 5.616882 -3.242905 3.242910
												CHANNELS 3 Xrotation Yrotation Zrotation
												End Site
												{
													OFFSET -1.254608 7.132141 0.375429
												}
											}
										}
									}
								}
								JOINT LeftHandPinky1
								{
									OFFSET 18.920792 -0.453171 -11.426712
									CHANNELS 3 Xrotation Yrotation Zrotation
									JOINT LeftHandPinky2
									{
										OFFSET 4.919586 0.000000 0.000000
										CHANNELS 3 Xrotation Yrotation Zrotation
										JOINT LeftHandPinky3
										{
											OFFSET 5.233047 0.000000 0.000000
											CHANNELS 3 Xrotation Yrotation Zrotation
											JOINT LeftHandPinky4
											{
												OFFSET 5.571716 0.000000 0.000000
												CHANNELS 3 Xrotation Yrotation Zrotation
												End Site
												{
													OFFSET -3.459808 4.342407 -0.466164
												}
											}
										}
									}
								}
								JOINT LeftHandRing1
								{
									OFFSET 22.726120 -0.094986 -6.500475
									CHANNELS 3 Xrotation Yrotation Zrotation
									JOINT LeftHandRing2
									{
										OFFSET 6.408615 0.000000 0.000000
										CHANNELS 3 Xrotation Yrotation Zrotation
										JOINT LeftHandRing3
										{
											OFFSET 6.150223 0.000000 0.000000
											CHANNELS 3 Xrotation Yrotation Zrotation
											JOINT LeftHandRing4
											{
												OFFSET 6.145386 0.000000 0.000000
												CHANNELS 3 Xrotation Yrotation Zrotation
												End Site
												{
													OFFSET -3.671402 4.923981 -0.202372
												}
											}
										}
									}
								}
								JOINT LeftHandMiddle1
								{
									OFFSET 23.373947 0.000000 0.000001
									CHANNELS 3 Xrotation Yrotation Zrotation
									JOINT LeftHandMiddle2
									{
										OFFSET 6.996567 0.000000 0.000000
										CHANNELS 3 Xrotation Yrotation Zrotation
										JOINT LeftHandMiddle3
										{
											OFFSET 7.015945 0.000000 0.000000
											CHANNELS 3 Xrotation Yrotation Zrotation
											JOINT LeftHandMiddle4
											{
												OFFSET 7.721573 0.000000 0.000000
												CHANNELS 3 Xrotation Yrotation Zrotation
												End Site
												{
													OFFSET -4.651108 6.158463 0.251582
												}
											}
										}
									}
								}
								JOINT LeftHandIndex1
								{
									OFFSET 21.310577 -0.490082 6.209344
									CHANNELS 3 Xrotation Yrotation Zrotation
									JOINT LeftHandIndex2
									{
										OFFSET 7.536453 0.000000 0.000000
										CHANNELS 3 Xrotation Yrotation Zrotation
										JOINT LeftHandIndex3
										{
											OFFSET 7.512344 0.000000 0.000000
											CHANNELS 3 Xrotation Yrotation Zrotation
											JOINT LeftHandIndex4
											{
												OFFSET 10.212402 0.000000 0.000001
												CHANNELS 3 Xrotation Yrotation Zrotation
												End Site
												{
													OFFSET -5.180801 8.690506 1.388433
												}
											}
										}
									}
								}
							}
						}
					}
				}
				JOINT RightShoulder
				{
					OFFSET -17.399500 24.608795 1.168800
					CHANNELS 3 Xrotation Yrotation Zrotation
					JOINT RightArm
					{
						OFFSET -18.980635 5.765305 1.818600
						CHANNELS 3 Xrotation Yrotation Zrotation
						JOINT RightForeArm
						{
							OFFSET -49.290169 0.000000 0.000000
							CHANNELS 3 Xrotation Yrotation Zrotation
							JOINT RightHand
							{
								OFFSET -31.562012 0.000000 0.000000
								CHANNELS 3 Xrotation Yrotation Zrotation
								JOINT RightHandThumb1
								{
									OFFSET -6.133995 -4.388519 7.076070
									CHANNELS 3 Xrotation Yrotation Zrotation
									JOINT RightHandThumb2
									{
										OFFSET -6.037666 -3.485840 3.485847
										CHANNELS 3 Xrotation Yrotation Zrotation
										JOINT RightHandThumb3
										{
											OFFSET -6.496506 -3.750763 3.750761
											CHANNELS 3 Xrotation Yrotation Zrotation
											JOINT RightHandThumb4
											{
												OFFSET -5.616882 -3.242905 3.242910
												CHANNELS 3 Xrotation Yrotation Zrotation
												End Site
												{
													OFFSET 1.254608 7.132141 0.375429
												}
											}
										}
									}
								}
								JOINT RightHandIndex1
								{
									OFFSET -21.310577 -0.490082 6.209344
									CHANNELS 3 Xrotation Yrotation Zrotation
									JOINT RightHandIndex2
									{
										OFFSET -7.536453 0.000000 0.000000
										CHANNELS 3 Xrotation Yrotation Zrotation
										JOINT RightHandIndex3
										{
											OFFSET -7.512344 0.000000 0.000000
											CHANNELS 3 Xrotation Yrotation Zrotation
											JOINT RightHandIndex4
											{
												OFFSET -10.212402 0.000000 0.000001
												CHANNELS 3 Xrotation Yrotation Zrotation
												End Site
												{
													OFFSET 5.180801 8.690506 1.388433
												}
											}
										}
									}
								}
								JOINT RightHandMiddle1
								{
									OFFSET -23.373947 0.000000 0.000001
									CHANNELS 3 Xrotation Yrotation Zrotation
									JOINT RightHandMiddle2
									{
										OFFSET -6.996567 0.000000 0.000000
										CHANNELS 3 Xrotation Yrotation Zrotation
										JOINT RightHandMiddle3
										{
											OFFSET -7.015945 0.000000 0.000000
											CHANNELS 3 Xrotation Yrotation Zrotation
											JOINT RightHandMiddle4
											{
												OFFSET -7.721573 0.000000 0.000000
												CHANNELS 3 Xrotation Yrotation Zrotation
												End Site
												{
													OFFSET 4.651108 6.158463 0.251582
												}
											}
										}
									}
								}
								JOINT RightHandRing1
								{
									OFFSET -22.726120 -0.094986 -6.500475
									CHANNELS 3 Xrotation Yrotation Zrotation
									JOINT RightHandRing2
									{
										OFFSET -6.408615 0.000000 0.000000
										CHANNELS 3 Xrotation Yrotation Zrotation
										JOINT RightHandRing3
										{
											OFFSET -6.150223 0.000000 0.000000
											CHANNELS 3 Xrotation Yrotation Zrotation
											JOINT RightHandRing4
											{
												OFFSET -6.145386 0.000000 0.000000
												CHANNELS 3 Xrotation Yrotation Zrotation
												End Site
												{
													OFFSET 3.671402 4.923981 -0.202372
												}
											}
										}
									}
								}
								JOINT RightHandPinky1
								{
									OFFSET -18.920792 -0.453171 -11.426712
									CHANNELS 3 Xrotation Yrotation Zrotation
									JOINT RightHandPinky2
									{
										OFFSET -4.919586 0.000000 0.000000
										CHANNELS 3 Xrotation Yrotation Zrotation
										JOINT RightHandPinky3
										{
											OFFSET -5.233047 0.000000 0.000000
											CHANNELS 3 Xrotation Yrotation Zrotation
											JOINT RightHandPinky4
											{
												OFFSET -5.571716 0.000000 0.000000
												CHANNELS 3 Xrotation Yrotation Zrotation
												End Site
												{
													OFFSET 3.459808 4.342407 -0.466164
												}
											}
										}
									}
								}
							}
						}
					}
				}
			}
		}
	}
	JOINT LeftUpLeg
	{
		OFFSET 19.899099 -7.885101 -3.429500
		CHANNELS 3 Xrotation Yrotation Zrotation
		JOINT LeftLeg
		{
			OFFSET 1.745560 -36.997807 10.304700
			CHANNELS 3 Xrotation Yrotation Zrotation
			JOINT LeftFoot
			{
				OFFSET -1.745558 -29.803308 -13.615400
				CHANNELS 3 Xrotation Yrotation Zrotation
				JOINT LeftToeBase
				{
					OFFSET 1.181900 -18.539904 15.226099
					CHANNELS 3 Xrotation Yrotation Zrotation
					JOINT LeftToe_End
					{
						OFFSET -0.863701 1.402801 16.534700
						CHANNELS 3 Xrotation Yrotation Zrotation
						End Site
						{
							OFFSET 0.000000 16.616566 0.000000
						}
					}
				}
			}
		}
	}
	JOINT RightUpLeg
	{
		OFFSET -19.899099 -7.885101 -3.429500
		CHANNELS 3 Xrotation Yrotation Zrotation
		JOINT RightLeg
		{
			OFFSET -1.745560 -36.997807 10.304700
			CHANNELS 3 Xrotation Yrotation Zrotation
			JOINT RightFoot
			{
				OFFSET 1.745558 -29.803308 -13.615400
				CHANNELS 3 Xrotation Yrotation Zrotation
				JOINT RightToeBase
				{
					OFFSET -1.181900 -18.539904 15.226099
					CHANNELS 3 Xrotation Yrotation Zrotation
					JOINT RightToe_End
					{
						OFFSET 0.863701 1.402801 16.534700
						CHANNELS 3 Xrotation Yrotation Zrotation
						End Site
						{
							OFFSET 0.000000 16.616566 0.000000
						}
					}
				}
			}
		}
	}
}
MOTION
Frames: 4
Frame Time: 0.033333
-0.029917 92.944809 2.351332 -4.120299 -1.675750 0.505648 3.458926 1.703687 -2.362167 0.711534 0.526838 -0.255406 0.708242 0.523097 -0.267070 2.609732 -0.754816 0.151146 18.949620 -7.305510 0.616340 0.000001 -0.000001 0.000000 2.730608 -4.471829 -12.384158 -6.603781 -10.273118 -60.669196 0.000009 -16.775180 0.000006 21.485702 -10.082274 -12.336698 3.400442 -6.557784 3.590805 15.344396 21.248018 9.264720 -12.579019 5.211079 15.704410 -0.000001 -0.000001 -0.000003 11.864473 15.217311 -50.260562 0.411978 2.159922 -21.594864 0.689711 2.759712 -28.059078 -0.000001 -0.000005 -0.000003 5.761703 10.460349 -44.834530 0.435459 2.218280 -22.209374 0.278410 1.786200 -17.716901 -0.000003 -0.000001 0.000005 0.095137 4.196356 -33.991212 0.439506 2.228197 -22.314272 0.188189 1.474429 -14.546782 -0.000000 0.000000 0.000009 -1.222354 -0.461789 -28.262368 0.291717 1.827313 -18.139051 0.038982 0.675390 -6.605496 -0.000002 0.000003 0.000001 1.994796 1.474232 14.937841 -2.025013 7.813148 63.299830 0.000002 12.108123 -0.000021 6.522654 12.381315 10.265037 -1.352780 9.111904 0.370092 17.056589 -29.721083 -6.078891 -13.949270 -13.457284 -16.103962 0.000003 0.000000 0.000002 -1.829545 1.944297 21.103529 0.341698 -1.752632 22.062554 0.059805 -0.744757 9.182111 0.000002 0.000000 0.000001 -0.804507 -1.809827 27.787211 0.365849 -1.811052 22.839215 0.241657 -1.482172 18.519423 -0.000001 -0.000001 -0.000001 2.161584 -6.996793 31.854606 0.441465 -1.980943 25.124407 0.360395 -1.798074 22.666253 -0.000001 0.000002 -0.000007 4.444030 -11.626658 37.638693 0.491081 -2.083399 26.523600 0.610448 -2.306959 29.638960 0.000001 0.000000 -0.000003 -2.109211 7.954265 7.597616 15.915336 7.862420 0.522544 -7.888993 6.605740 -9.078063 0.969823 0.000003 -0.004724 -0.000000 -0.000000 -0.000000 0.893956 -9.205107 -8.893953 16.406075 -7.752196 2.043908 -11.233619 -6.473848 7.331227 -1.456496 -0.000005 0.000001 0.000000 0.000001 0.000000 
-0.079387 92.756668 1.908629 -4.440563 -1.481670 0.588430 3.381286 1.511190 -2.352944 0.711534 0.473924 -0.255406 0.703829 0.473181 -0.253257 2.632359 -0.742530 0.162957 18.902009 -7.219585 0.476686 -0.000000 -0.000000 -0.000000 2.732237 -4.645911 -12.371103 -6.586680 -10.553541 -60.673656 -0.000000 -17.098545 -0.000011 21.531842 -9.960024 -12.449075 3.401611 -6.546379 3.593242 15.342611 21.060887 9.250203 -12.674132 4.681478 15.767972 0.000000 0.000001 -0.000002 11.641157 15.073538 -50.104994 0.410172 2.155339 -21.546616 0.689173 2.758691 -28.047847 -0.000000 -0.000001 -0.000004 5.696291 10.405706 -44.757933 0.436032 2.219675 -22.224268 0.280682 1.793286 -17.789527 -0.000002 0.000001 0.000002 0.083384 4.176708 -33.951638 0.437547 2.223410 -22.263748 0.188625 1.476111 -14.563828 -0.000000 -0.000000 0.000009 -1.242109 -0.484341 -28.164480 0.292995 1.831261 -18.179585 0.038193 0.668591 -6.538800 0.000003 -0.000000 -0.000001 1.996412 1.467613 14.947007 -2.024661 7.809442 63.280719 0.000008 12.034635 -0.000011 6.591086 12.333147 10.276342 -1.309743 8.807676 0.159064 17.037700 -29.558699 -6.078565 -13.991243 -12.846707 -16.001304 0.000001 0.000001 0.000001 -1.786785 1.932360 20.773522 0.344156 -1.758664 22.142469 0.058911 -0.739252 9.113807 0.000002 -0.000003 -0.000002 -0.803132 -1.794027 27.623259 0.368430 -1.817166 22.920704 0.237814 -1.470663 18.370463 -0.000000 0.000000 -0.000009 2.073642 -6.862394 31.783162 0.433436 -1.963732 24.891200 0.360827 -1.799086 22.679788 -0.000003 -0.000003 -0.000003 4.231750 -11.410558 37.350644 0.494966 -2.091163 26.630151 0.599620 -2.287841 29.368840 0.000002 -0.000001 0.000004 -2.550398 7.878761 7.590548 16.686128 7.797929 0.563652 -8.014838 6.462838 -9.065044 1.063094 0.000002 0.000001 -0.000000 0.000000 -0.000000 0.524200 -9.177929 -8.986094 17.352055 -7.718596 2.042323 -11.509561 -6.619927 7.267607 -1.460288 0.000012 0.000000 0.000000 -0.000002 -0.000000 
-0.118240 92.562088 1.426798 -4.761840 -1.280070 0.654334 3.333759 1.317084 -2.278627 0.705988 0.423720 -0.252381 0.692951 0.424964 -0.242194 2.658870 -0.727281 0.148686 18.731741 -7.138950 0.313779 -0.000001 0.000000 0.000000 2.739540 -4.779933 -12.358388 -6.505467 -11.047232 -60.686142 0.000007 -18.035975 -0.000002 21.703035 -9.605189 -12.773692 3.403993 -6.522680 3.598290 15.337736 20.538695 9.208708 -12.946299 3.202063 15.934099 0.000001 0.000001 -0.000001 11.014132 14.671590 -49.678288 0.405118 2.142546 -21.412230 0.687712 2.755931 -28.017274 -0.000000 -0.000001 -0.000006 5.514578 10.251603 -44.550411 0.437748 2.223886 -22.268698 0.287180 1.813409 -17.996273 -0.000003 0.000000 0.000003 0.050933 4.122498 -33.846155 0.432124 2.210097 -22.123200 0.189892 1.480983 -14.612940 0.000001 -0.000004 0.000001 -1.294412 -0.546016 -27.898164 0.296704 1.842470 -18.294783 0.035999 0.649349 -6.349873 -0.000000 0.000004 0.000000 2.004741 1.434367 14.981837 -2.022605 7.802491 63.233106 0.000003 11.840036 0.000016 6.679003 12.190088 10.322795 -1.195067 7.978259 -0.420178 16.979755 -29.104829 -6.078113 -14.118664 -11.167256 -15.718615 0.000001 0.000000 -0.000002 -1.672379 1.901817 19.865597 0.350753 -1.774798 22.356690 0.056458 -0.723687 8.920285 0.000001 -0.000001 -0.000001 -0.799013 -1.749815 27.164835 0.375406 -1.833579 23.139817 0.227242 -1.438420 17.953635 0.000000 -0.000000 -0.000009 1.834786 -6.493957 31.580759 0.411564 -1.915936 24.245058 0.361826 -1.801477 22.711670 -0.000002 -0.000003 -0.000005 3.664449 -10.814581 36.555668 0.505555 -2.112145 26.919128 0.569962 -2.234380 28.617369 0.000001 -0.000002 0.000002 -3.034454 7.739884 7.569070 17.501291 7.740761 0.668871 -8.184524 6.352174 -9.101051 1.052090 0.000011 0.000000 -0.000000 0.000001 -0.000000 0.121887 -9.210785 -9.081637 18.286131 -7.661088 2.054993 -11.746174 -6.741039 7.188883 -1.474548 0.000010 -0.000001 0.000000 0.000000 -0.000000 
-0.161853 92.345108 0.927894 -5.059207 -1.033827 0.736957 3.171957 1.106558 -2.219935 0.682062 0.369532 -0.248842 0.668644 0.371999 -0.235904 2.698033 -0.721783 0.140419 18.423856 -7.119290 0.146459 -0.000000 -0.000000 0.000000 2.726501 -4.849503 -12.330055 -6.284717 -11.370688 -60.752750 0.000009 -19.125558 0.000001 22.045604 -9.065594 -13.279387 3.407902 -6.483615 3.606614 15.330395 19.739122 9.143568 -13.375261 0.934252 16.161754 -0.000003 0.000002 -0.000003 10.062959 14.035993 -49.041930 0.397496 2.122984 -21.207078 0.685523 2.751841 -27.971964 0.000004 -0.000001 -0.000007 5.238665 10.012003 -44.245330 0.440610 2.230862 -22.342360 0.297539 1.844996 -18.320859 -0.000002 -0.000000 0.000002 0.002196 4.040678 -33.694266 0.423899 2.189771 -21.908955 0.191926 1.488711 -14.691194 0.000000 -0.000005 0.000004 -1.368661 -0.638168 -27.503884 0.302524 1.859994 -18.475255 0.032765 0.619332 -6.055102 -0.000000 0.000001 0.000001 2.020859 1.364704 15.058139 -2.016484 7.779725 63.185581 0.000007 11.562676 -0.000015 6.771229 11.989413 10.396677 -1.031474 6.747159 -1.287872 16.890643 -28.408029 -6.076471 -14.343245 -8.645425 -15.292097 -0.000000 -0.000000 -0.000002 -1.507615 1.859819 18.496040 0.360431 -1.798147 22.667306 0.052699 -0.699382 8.618165 -0.000003 -0.000001 -0.000001 -0.792028 -1.682057 26.461394 0.385680 -1.857420 23.458857 0.211430 -1.388749 17.313309 -0.000004 0.000001 -0.000008 1.483690 -5.942170 31.265580 0.379435 -1.842958 23.265262 0.363003 -1.804270 22.748833 -0.000002 0.000001 -0.000003 2.855373 -9.909840 35.369267 0.521367 -2.142990 27.344983 0.526127 -2.152114 27.471545 -0.000001 0.000000 0.000001 -3.584150 7.522426 7.525114 18.378852 7.826267 0.819228 -8.371107 6.132838 -9.237111 1.029917 -0.000007 -0.000001 0.000000 -0.000002 0.000000 -0.341166 -9.289640 -9.201814 19.279432 -7.554126 2.092378 -12.014280 -6.901663 7.079002 -1.496392 -0.000002 0.000002 0.000000 -0.000001 -0.000000 
